<?xml version="1.0" encoding="UTF-8"?>
<svg width="48px" height="48px" viewBox="0 0 48 48" version="1.1" xmlns="http://www.w3.org/2000/svg" xmlns:xlink="http://www.w3.org/1999/xlink">
    <title>fevo-logo-yellow</title>
    <g id="Page-1" stroke="none" stroke-width="1" fill="none" fill-rule="evenodd">
        <g id="Artboard" transform="translate(-57.000000, 0.000000)">
            <g id="fevo-logo-yellow" transform="translate(57.000000, 0.000000)">
                <path d="M24,0 C10.8,0 0,10.8 0,24 C0,37.2 10.8,48 24,48 C37.2,48 48,37.2 48,24 C48,10.8 37.2,0 24,0 Z" id="Path" fill="#FFD400"></path>
                <path d="M30.45,24.75 C31.5,24.75 32.25,24.9 32.7,25.2 C33.3,25.5 33.6,25.95 33.75,26.55 C34.05,27.15 34.05,27.9 34.05,28.65 C34.05,29.4 33.9,30.3 33.75,31.35 C33.6,32.4 33.3,33.3 33.15,34.05 C32.85,34.8 32.55,35.55 32.1,36.15 C31.65,36.75 31.2,37.2 30.45,37.5 C29.85,37.8 28.95,37.95 27.9,37.95 C26.85,37.95 26.1,37.8 25.65,37.5 C25.05,37.2 24.75,36.75 24.6,36.15 C24.45,35.55 24.3,34.8 24.3,34.05 C24.3,33.3 24.45,32.4 24.6,31.35 C24.75,30.45 25.05,29.55 25.2,28.65 C25.5,27.9 25.8,27.15 26.25,26.55 C26.7,25.95 27.15,25.5 27.9,25.2 C28.5,24.9 29.4,24.75 30.45,24.75 Z M16.95,25.05 L18.3,34.05 L22.95,25.05 L25.95,25.05 L19.2,37.8 L15.9,37.8 L13.95,25.05 L16.95,25.05 Z M30,26.55 C29.55,26.55 29.25,26.7 28.95,26.85 C28.65,27 28.5,27.3 28.2,27.75 C28.05,28.2 27.75,28.65 27.6,29.25 C27.45,29.85 27.3,30.6 27.15,31.5 C27.15,32.25 27,33 27,33.6 L27,35.1 C27,35.55 27.15,35.7 27.45,35.85 C27.6,36 27.9,36.15 28.35,36.15 C28.8,36.15 29.1,36 29.4,35.85 C29.7,35.7 29.85,35.4 30.15,35.1 C30.3,34.65 30.6,34.2 30.75,33.6 C30.9,33 31.05,32.25 31.2,31.35 C31.35,30.45 31.5,29.7 31.5,29.1 L31.5,27.6 C31.35,27.3 31.2,27 30.9,26.85 C30.75,26.7 30.45,26.55 30,26.55 Z M25.8,10.05 L25.35,12.45 L18.9,12.45 L18.3,15.45 L24,15.45 L23.55,17.7 L18,17.7 L17.1,22.95 L14.1,22.95 L16.5,10.05 L25.8,10.05 Z M33.9,10.05 L33.6,12.15 L29.4,12.15 L28.8,15.15 L32.7,15.15 L32.25,17.25 L28.5,17.25 L27.9,20.7 L32.25,20.7 L31.8,22.8 L24.75,22.8 L27.15,10.05 L33.9,10.05 Z" id="Path" fill="#000000"></path>
            </g>
        </g>
    </g>
</svg>